<svg xmlns="http://www.w3.org/2000/svg" xmlns:xlink="http://www.w3.org/1999/xlink" width="1525.233" height="1783.636" viewBox="0 0 1525.233 1783.636">
  <defs>
    <clipPath id="clip-path">
      <rect id="長方形_84" data-name="長方形 84" width="217.588" height="210.225" fill="#2e96ff"></rect>
    </clipPath>
    <clipPath id="clip-path-2">
      <rect id="長方形_84-2" data-name="長方形 84" width="243.933" height="235.679" fill="#f5e342"></rect>
    </clipPath>
    <clipPath id="clip-path-3">
      <rect id="長方形_84-3" data-name="長方形 84" width="284.991" height="275.347" fill="#e61d3a"></rect>
    </clipPath>
    <clipPath id="clip-path-4">
      <rect id="長方形_84-4" data-name="長方形 84" width="343.679" height="332.049" fill="#f5e342"></rect>
    </clipPath>
  </defs>
  <g id="グループ_52" data-name="グループ 52" transform="translate(159.233 -815.364)">
    <circle id="楕円形_30" data-name="楕円形 30" cx="120" cy="120" r="120" transform="translate(1126 1381)" fill="#f5e342"></circle>
    <g id="グループ_19" data-name="グループ 19" transform="translate(375.605 1740.492) rotate(47)">
      <g id="グループ_18" data-name="グループ 18" clip-path="url('#clip-path')">
        <path id="パス_16" data-name="パス 16" d="M0,170.791c33.693-28,70.877-59.9,107.282-90.2S179.335,21.595,210.25,0a883.824,883.824,0,0,1,7.3,105.271,851.028,851.028,0,0,1-5.524,104.954c-33.644-1.217-68.3-6.116-103.725-13.19S36.69,180.711,0,170.791" fill="#2e96ff"></path>
      </g>
    </g>
    <g id="グループ_35" data-name="グループ 35" transform="translate(533.452 1568.893) rotate(-169)">
      <g id="グループ_18-2" data-name="グループ 18" transform="translate(0 0)" clip-path="url('#clip-path-2')">
        <path id="パス_16-2" data-name="パス 16" d="M0,191.469C37.772,160.083,79.459,124.32,120.271,90.352S201.048,24.209,235.707,0A990.838,990.838,0,0,1,243.9,118.017,954.074,954.074,0,0,1,237.7,235.679c-37.717-1.365-76.571-6.856-116.284-14.787S41.132,202.591,0,191.469" transform="translate(0 0)" fill="#f5e342"></path>
      </g>
    </g>
    <g id="グループ_36" data-name="グループ 36" transform="matrix(-0.998, 0.07, -0.07, -0.998, 1184, 2081.398)">
      <g id="グループ_18-3" data-name="グループ 18" clip-path="url('#clip-path-3')">
        <path id="パス_16-3" data-name="パス 16" d="M0,223.7c44.13-36.669,92.833-78.452,140.515-118.137S234.888,28.284,275.38,0a1157.61,1157.61,0,0,1,9.566,137.881,1114.654,1114.654,0,0,1-7.235,137.466c-44.066-1.594-89.459-8.01-135.856-17.276S48.055,236.69,0,223.7" fill="#e61d3a"></path>
      </g>
    </g>
    <g id="グループ_21" data-name="グループ 21" transform="translate(83.612 2014.953) rotate(47)">
      <g id="グループ_18-4" data-name="グループ 18" transform="translate(0 0)" clip-path="url('#clip-path-4')">
        <path id="パス_16-4" data-name="パス 16" d="M0,269.762C53.217,225.542,111.949,175.155,169.451,127.3,226.97,79.439,283.258,34.108,332.088,0a1395.992,1395.992,0,0,1,11.536,166.274A1344.2,1344.2,0,0,1,334.9,332.049c-53.14-1.923-107.881-9.66-163.833-20.834S57.951,285.431,0,269.762" transform="translate(0 0)" fill="#f5e342"></path>
      </g>
    </g>
    <g id="グループ_20" data-name="グループ 20" transform="translate(448.658 2327.73)">
      <path id="パス_17" data-name="パス 17" d="M147.3,0,73.652,61.534,0,123.069l90.116,33.017L180.231,189.1,163.768,94.55Z" transform="translate(0)" fill="#f5e342"></path>
      <rect id="長方形_85" data-name="長方形 85" width="120.301" height="120.301" transform="translate(22.349 167.086) rotate(-30)" fill="#dd002b"></rect>
    </g>
    <rect id="長方形_86" data-name="長方形 86" width="279.141" height="279.141" transform="translate(867.682 915.4) rotate(-21)" fill="#2e96ff"></rect>
    <circle id="楕円形_25" data-name="楕円形 25" cx="79" cy="79" r="79" transform="translate(239 1006)" fill="#e61d3a"></circle>
  </g>
</svg>
